<?xml version="1.0" standalone="no"?><!DOCTYPE svg PUBLIC "-//W3C//DTD SVG 1.1//EN" "http://www.w3.org/Graphics/SVG/1.1/DTD/svg11.dtd"><svg t="1776091261904" class="icon" viewBox="0 0 1024 1024" version="1.1" xmlns="http://www.w3.org/2000/svg" p-id="4810" xmlns:xlink="http://www.w3.org/1999/xlink" width="200" height="200"><path d="M426.666667 254.613333c23.5648 0 42.666667 14.327467 42.666666 32 0 17.672533-19.101867 32-42.666666 32H341.3376c-23.560533 0-42.666667-14.327467-42.666667-32 0-17.672533 19.106133-32 42.666667-32h85.333333z m0 170.257067c23.5648 0 42.666667 14.327467 42.666666 32 0 17.672533-19.101867 32-42.666666 32H341.333333c-23.560533 0-42.6624-14.327467-42.6624-32 0-17.672533 19.101867-32 42.666667-32H426.666667z m435.170133 131.886933c-23.560533 0-29.866667-19.101867-29.866667-42.666666V166.4a17.066667 17.066667 0 0 0-17.066666-17.066667H209.066667a17.066667 17.066667 0 0 0-17.066667 17.066667v691.2a17.066667 17.066667 0 0 0 17.066667 17.066667h260.258133c23.560533 0 42.666667 6.301867 42.666667 29.866666s-19.106133 34.133333-42.666667 34.133334H213.329067C166.203733 938.666667 128 900.462933 128 853.333333V170.666667c0-47.1296 38.203733-85.333333 85.333333-85.333334h597.307734c47.125333 0 85.329067 38.203733 85.329066 85.333334v343.424c0 23.5648-10.568533 42.666667-34.133333 42.666666z" fill="#333333" p-id="4811"></path><path d="M716.8 755.2v-83.2a32 32 0 1 1 64 0V755.2h83.2a32 32 0 1 1 0 64H780.8v87.466667a32 32 0 1 1-64 0V819.2h-87.466667a32 32 0 1 1 0-64H716.8z" fill="#333333" p-id="4812"></path></svg>