<?xml version="1.0" standalone="no"?><!DOCTYPE svg PUBLIC "-//W3C//DTD SVG 1.1//EN" "http://www.w3.org/Graphics/SVG/1.1/DTD/svg11.dtd"><svg t="1774584506040" class="icon" viewBox="0 0 1241 1024" version="1.1" xmlns="http://www.w3.org/2000/svg" p-id="14395" xmlns:xlink="http://www.w3.org/1999/xlink" width="242.3828125" height="200"><path d="M1155.12158 1022.906253a82.893312 82.893312 0 0 1-55.633095-22.809569l-436.163468-377.192387v313.770658a86.231298 86.231298 0 0 1-50.626117 78.998996A82.336981 82.336981 0 0 1 520.347962 1001.765677L29.664061 575.616166A87.34396 87.34396 0 0 1 28.551399 445.434723L521.460624 22.623198A82.336981 82.336981 0 0 1 612.6989 7.602262a86.231298 86.231298 0 0 1 51.182448 79.555327v311.545334L1098.932154 22.623198a82.336981 82.336981 0 0 1 89.569283-15.020936 86.231298 86.231298 0 0 1 51.182448 79.555327v848.961036a86.231298 86.231298 0 0 1-51.738778 79.555326 83.449643 83.449643 0 0 1-32.823527 7.232302z m-493.465556-514.049801l492.352894 428.931165V86.601258z m-85.118636-423.924187L84.184494 508.856452l492.352894 428.931165V86.601258z" fill="#5E5C5C" p-id="14396"></path></svg>