<?xml version="1.0" standalone="no"?><!DOCTYPE svg PUBLIC "-//W3C//DTD SVG 1.1//EN" "http://www.w3.org/Graphics/SVG/1.1/DTD/svg11.dtd"><svg t="1776091561190" class="icon" viewBox="0 0 1024 1024" version="1.1" xmlns="http://www.w3.org/2000/svg" p-id="9742" xmlns:xlink="http://www.w3.org/1999/xlink" width="200" height="200"><path d="M568.896 900.224a38.4 38.4 0 0 1 0 76.8H455.104a38.4 38.4 0 0 1 0-76.8h113.792z m28.416-106.624a38.4 38.4 0 1 1 0 76.8H426.624a38.4 38.4 0 1 1 0-76.8h170.688zM601.6 675.968c0-28.8 11.84-56.192 32.768-75.904l47.104-44.352c58.624-55.616 90.432-127.616 90.752-201.536V350.72l-0.32-11.264c-6.72-115.584-116.48-215.68-259.904-215.68-148.032 0-260.288 106.688-260.288 226.944v3.52c0.32 73.92 32.192 145.92 90.752 201.536l47.104 44.352c20.928 19.712 32.832 47.168 32.832 75.904 0 6.08 4.928 11.008 10.944 11.008H590.72c6.016 0 10.88-4.992 10.88-11.008z m76.8 0c0 48.448-39.296 87.68-87.744 87.68H433.28a87.808 87.808 0 0 1-87.808-87.68 27.392 27.392 0 0 0-8.576-19.968l-47.104-44.352-0.128-0.064C216.96 542.464 175.36 450.752 174.912 354.368V350.72l0.448-16C184.64 171.712 335.872 47.04 512 47.04c181.824 0 337.088 132.864 337.088 303.68v3.712c-0.448 96.384-42.048 188.16-114.816 257.216l-0.128 0.064-47.168 44.352a27.392 27.392 0 0 0-8.576 19.968z" p-id="9743"></path></svg>