<?xml version="1.0" standalone="no"?><!DOCTYPE svg PUBLIC "-//W3C//DTD SVG 1.1//EN" "http://www.w3.org/Graphics/SVG/1.1/DTD/svg11.dtd"><svg t="1776151887444" class="icon" viewBox="0 0 1024 1024" version="1.1" xmlns="http://www.w3.org/2000/svg" p-id="7221" xmlns:xlink="http://www.w3.org/1999/xlink" width="200" height="200"><path d="M554.666667 149.333333a42.666667 42.666667 0 0 1 42.666666-42.666666h256.085334A63.914667 63.914667 0 0 1 917.333333 170.666667v256a42.666667 42.666667 0 1 1-85.333333 0V192H597.333333a42.666667 42.666667 0 0 1-42.666666-42.666667zM106.666667 853.333333V597.333333a42.666667 42.666667 0 1 1 85.333333 0v234.666667h234.666667a42.666667 42.666667 0 1 1 0 85.333333H170.581333A63.936 63.936 0 0 1 106.666667 853.333333z" fill="#262C66" p-id="7222"></path></svg>