<?xml version="1.0" standalone="no"?><!DOCTYPE svg PUBLIC "-//W3C//DTD SVG 1.1//EN" "http://www.w3.org/Graphics/SVG/1.1/DTD/svg11.dtd"><svg t="1774753090652" class="icon" viewBox="0 0 1024 1024" version="1.1" xmlns="http://www.w3.org/2000/svg" p-id="9189" xmlns:xlink="http://www.w3.org/1999/xlink" width="200" height="200"><path d="M883.3 228.2l-96.4-86.8c-15.9-15.9-42-15.9-58 0v57.8c-37.6 4.3-98.9 16-160.6 47.7-88.8 45.7-194.7 141.4-203.4 339-0.8 11.2-0.9 18-0.9 19h0.4v2.5c-0.1 27.5 22 49.9 49.5 50.2 27.6 0.3 50.2-21.9 50.5-49.5 0-5.5 0.2-10.9 0.4-16.2 2.1-25.5 10.1-84 40.5-141 22.5-42.1 52.8-75.5 90.4-99.4 37-23.5 81.7-38.2 133.3-43.8v64.6c15.9 15.9 42 15.9 58 0l96.4-86.1c15.9-16 15.9-42.1-0.1-58z" fill="#2c2c2c" p-id="9190"></path><path d="M834.8 932.4H188.4c-25.4 0-49.1-9.9-66.9-27.8C103.8 886.7 94 863.1 94 838V185.7c0-52 42.3-94.3 94.4-94.3H353c19.3 0 35 15.7 35 35s-15.7 35-35 35H188.4c-13.5 0-24.4 10.9-24.4 24.3V838c0 6.4 2.6 12.7 7.3 17.4 4.5 4.5 10.6 7 17.1 7h646.4c6.4 0 12.6-2.6 17.2-7.1 4.5-4.5 7-10.7 7-17.2V674c0-19.3 15.7-35 35-35s35 15.7 35 35v164c0 25.3-9.8 49-27.5 66.7-17.6 17.6-41.9 27.7-66.7 27.7z" fill="#2c2c2c" p-id="9191"></path></svg>