<?xml version="1.0" standalone="no"?><!DOCTYPE svg PUBLIC "-//W3C//DTD SVG 1.1//EN" "http://www.w3.org/Graphics/SVG/1.1/DTD/svg11.dtd"><svg t="1776151337103" class="icon" viewBox="0 0 1024 1024" version="1.1" xmlns="http://www.w3.org/2000/svg" p-id="5232" xmlns:xlink="http://www.w3.org/1999/xlink" width="200" height="200"><path d="M575.168 148.928c133.376-68.224 254.592-79.552 316.928-17.152 72.128 72.064 45.888 222.848-53.12 380.096 99.008 157.248 125.248 308.032 53.12 380.16-72.064 72.064-222.848 45.824-380.096-53.248l-0.32 0.128-57.92-39.68h0.256a1093.44 1093.44 0 0 1-123.008-106.24 1093.504 1093.504 0 0 1-106.24-123.136 625.728 625.728 0 0 0-49.28 104.192c-33.92 95.744-20.8 150.272 1.664 172.672 22.4 22.464 76.928 35.648 172.672 1.664 12.416-4.416 24.96-9.728 38.016-15.424 8.64 6.272 20.8 15.232 34.688 24.768 10.176 7.04 19.008 12.736 26.048 17.152-133.312 68.16-254.336 79.488-316.672 17.152-72.128-72.128-45.888-222.912 53.12-380.16-99.008-157.248-125.248-308.032-53.12-380.16C203.968 59.712 354.752 85.952 512 184.96v-0.064l57.984 39.68c41.6 30.72 83.136 66.368 123.072 106.24 39.936 40 75.52 81.472 106.24 123.072a624.96 624.96 0 0 0 49.216-104.192c33.92-95.744 20.8-150.272-1.664-172.672-22.4-22.464-76.928-35.584-172.672-1.664-12.48 4.48-25.216 9.728-38.272 15.488-8.64-6.272-20.672-15.168-34.368-24.576a745.152 745.152 0 0 0-26.368-17.28z m224.128 420.928c-30.72 41.6-66.304 83.136-106.24 123.072a1093.76 1093.76 0 0 1-123.072 106.24 625.472 625.472 0 0 0 104.192 49.216c95.744 33.92 150.272 20.8 172.672-1.664 22.464-22.4 35.648-76.928 1.664-172.672a625.28 625.28 0 0 0-49.216-104.192zM512 261.76a1014.336 1014.336 0 0 0-135.744 114.368 1014.336 1014.336 0 0 0-114.368 135.744 1014.272 1014.272 0 0 0 114.368 135.744A1014.912 1014.912 0 0 0 512 762.048a1015.168 1015.168 0 0 0 135.744-114.432 1014.4 1014.4 0 0 0 114.432-135.744 1014.4 1014.4 0 0 0-114.432-135.744A1014.528 1014.528 0 0 0 512 261.76z m2.048 175.36a76.8 76.8 0 1 1 0 153.664 76.8 76.8 0 0 1 0-153.664zM349.824 175.36c-95.744-33.92-150.272-20.8-172.672 1.664-22.464 22.4-35.648 76.928-1.664 172.672 11.712 32.896 28.224 68.032 49.28 104.192a1093.12 1093.12 0 0 1 106.24-123.008 1093.12 1093.12 0 0 1 123.008-106.24 625.536 625.536 0 0 0-104.192-49.28z" p-id="5233"></path></svg>